<svg width="24" height="24" viewBox="0 0 24 24" fill="none" xmlns="http://www.w3.org/2000/svg">
<circle opacity="0.1" cx="12" cy="12" r="11" fill="#DE7310"/>
<path d="M12.71 17C12.71 17.5523 12.2622 18 11.71 18C11.1577 18 10.71 17.5523 10.71 17C10.71 16.4477 11.1577 16 11.71 16C12.2622 16 12.71 16.4477 12.71 17Z" fill="#DE7310"/>
<path d="M12.5869 14.0225C12.5179 14.4551 12.1448 14.7734 11.7067 14.7734C11.2687 14.7734 10.8955 14.4551 10.8265 14.0225L10.0217 8.97505C9.8564 7.93857 10.6572 7 11.7067 7C12.7563 7 13.5571 7.93857 13.3918 8.97505L12.5869 14.0225Z" fill="#DE7310"/>
</svg>
